<svg viewBox="0 0 200 200" fill="none" xmlns="http://www.w3.org/2000/svg" width="88" height="88"><g opacity="0.25" fill="#000"><path d="M72.78 171.273a4.035 4.035 0 01-1.348-2.647l-7.646-81.35h27.213v91.137c0 3.476-4.101 5.325-6.707 3.025L72.78 171.273zM90.999 85.663V74.307L62.334 71.83l1.3 13.833H91zM90.999 72.686l-28.819-2.49-4.504-47.919a4.036 4.036 0 014.018-4.413h25.27a4.036 4.036 0 014.035 4.035v50.787zM144.187 85.662h20.744a2.018 2.018 0 002.018-2.018v-11.9a2.017 2.017 0 00-2.214-2.008l-19.263 1.881-1.285 14.045zM143.837 71.777l-28.705 2.803v11.082h27.434l1.271-13.885z"></path><path d="M113.518 74.737v10.925H37.083a2.018 2.018 0 01-2.017-2.018V71.718a2.018 2.018 0 012.19-2.01l67.93 5.81c.122.01.245.009.368-.003l7.964-.778zM122.041 181.164c-2.535 2.569-6.909.774-6.909-2.834V53.136h30.449L134.988 166.74a4.033 4.033 0 01-1.145 2.459l-11.802 11.965zM145.731 51.521h-30.599v-17.4l32.41-2.021-1.811 19.421zM115.132 21.9v10.604l32.562-2.03.764-8.2a4.035 4.035 0 00-4.018-4.41h-25.272a4.036 4.036 0 00-4.036 4.036zM90.999 51.521V34.172l-32.37-1.593 1.77 18.942H91z"></path><path d="M92.613 51.521h81.6c.892 0 1.615-.722 1.615-1.614V31.974c0-.932-.787-1.67-1.717-1.611l-70.077 4.451-11.42-.562v17.27zM56.867 32.493l1.934 19.028H26.105a1.614 1.614 0 01-1.614-1.614V32.595c0-.923.772-1.658 1.694-1.612l30.681 1.51z"></path></g><path d="M72.459 170.949a4.035 4.035 0 01-1.347-2.647l-7.646-81.349h27.213v91.136c0 3.476-4.102 5.326-6.707 3.025l-11.513-10.165z" fill="url(#i201)"></path><path d="M90.679 85.339V73.983l-28.666-2.477 1.3 13.833H90.68z" fill="url(#i200)"></path><path d="M90.679 72.363l-28.819-2.49-4.504-47.92a4.036 4.036 0 014.018-4.413h25.269a4.036 4.036 0 014.036 4.036v50.787z" fill="url(#i199)"></path><path d="M143.867 85.339h20.744a2.018 2.018 0 002.018-2.018v-11.9a2.018 2.018 0 00-2.214-2.009l-19.263 1.881-1.285 14.046z" fill="url(#i198)"></path><path d="M143.516 71.453l-28.704 2.803v11.083h27.434l1.27-13.886z" fill="url(#i197)"></path><path d="M113.197 74.414v10.925H36.763a2.018 2.018 0 01-2.018-2.018V71.394a2.018 2.018 0 012.19-2.01l67.93 5.81c.123.01.246.01.369-.003l7.963-.777z" fill="url(#i196)"></path><path d="M121.72 180.84c-2.534 2.569-6.908.774-6.908-2.834V52.812h30.449l-10.593 113.604a4.033 4.033 0 01-1.145 2.459L121.72 180.84z" fill="url(#i195)"></path><path d="M145.411 51.198h-30.599v-17.4l32.41-2.022-1.811 19.422z" fill="url(#i194)"></path><path d="M114.812 21.576v10.605l32.562-2.032.764-8.198a4.035 4.035 0 00-4.018-4.41h-25.273a4.035 4.035 0 00-4.035 4.035z" fill="url(#i193)"></path><path d="M90.679 51.198v-17.35l-32.37-1.592 1.77 18.942h30.6z" fill="url(#i192)"></path><path d="M92.293 51.198h81.6c.891 0 1.614-.723 1.614-1.615V31.65c0-.932-.786-1.67-1.716-1.611l-70.077 4.451-11.421-.562v17.27z" fill="url(#i191)"></path><path d="M56.547 32.169l1.933 19.029H25.786a1.614 1.614 0 01-1.614-1.615V32.271c0-.922.772-1.657 1.694-1.612l30.68 1.51z" fill="url(#i190)"></path><g fill="#fff"><path d="M63.338 70l-1.478-.127-1.755-18.675h-.025l-1.771-18.942h.015l-.968-10.303a4.036 4.036 0 014.018-4.413h25.269c1.53 0 2.862.852 3.546 2.107a4.018 4.018 0 00-1.928-.489H62.992a4.036 4.036 0 00-4.018 4.413l.969 10.303h-.016l1.771 18.942h.025L63.338 70zM92.297 51.198h1.614V35.546l11.421.562 70.077-4.451.098-.003v-.004c0-.932-.786-1.67-1.716-1.611l-24.784 1.574-.015.154L116.43 33.8v-.117l-12.716.808-11.417-.562v17.27zM147.665 19.647a4.01 4.01 0 00-1.927-.488h-25.272a4.036 4.036 0 00-4.036 4.035v8.886l-1.618.1V21.577a4.035 4.035 0 014.035-4.035h25.273c1.54 0 2.864.858 3.545 2.106zM114.812 52.816h30.448l-.15 1.614h-28.68v125.194c0 .718.173 1.364.47 1.918a3.96 3.96 0 01-2.088-3.536v-91.05h.004V76.033h-.004V52.816zM113.197 76.19v-1.776l-7.963.777a2.04 2.04 0 01-.369.002l-42.851-3.687.002.023-25.081-2.145a2.018 2.018 0 00-2.19 2.01V83.32c0 .99.712 1.812 1.652 1.984a2.023 2.023 0 01-.033-.366V73.012a2.018 2.018 0 012.19-2.01l25.08 2.145-.002-.023 42.852 3.687c.122.01.246.01.368-.002l6.345-.62zM63.466 86.957l7.646 81.345a4.035 4.035 0 001.347 2.647l.918.811a4.038 4.038 0 01-.646-1.84l-7.647-81.349h25.595v-1.614H63.466zM144.012 85.339h1.621l1.137-12.428 19.263-1.88c.193-.02.382-.01.563.022a2.02 2.02 0 00-2.181-1.64l-19.107 1.865-.496 5.324-.8 8.737zM56.704 33.715l-.157-1.546-30.681-1.51a1.614 1.614 0 00-1.694 1.612v17.312c0 .892.723 1.615 1.614 1.615h.004V33.889c0-.922.772-1.657 1.694-1.612l29.22 1.438z"></path></g><defs><linearGradient id="i201" x1="24.172" y1="99.836" x2="175.507" y2="99.836" gradientUnits="userSpaceOnUse"><stop stop-color="#5433FF"></stop><stop offset="0.5" stop-color="#20BDFF"></stop><stop offset="1" stop-color="#A5FECB"></stop></linearGradient><linearGradient id="i200" x1="24.172" y1="99.836" x2="175.507" y2="99.836" gradientUnits="userSpaceOnUse"><stop stop-color="#5433FF"></stop><stop offset="0.5" stop-color="#20BDFF"></stop><stop offset="1" stop-color="#A5FECB"></stop></linearGradient><linearGradient id="i199" x1="24.172" y1="99.836" x2="175.507" y2="99.836" gradientUnits="userSpaceOnUse"><stop stop-color="#5433FF"></stop><stop offset="0.5" stop-color="#20BDFF"></stop><stop offset="1" stop-color="#A5FECB"></stop></linearGradient><linearGradient id="i198" x1="24.172" y1="99.836" x2="175.507" y2="99.836" gradientUnits="userSpaceOnUse"><stop stop-color="#5433FF"></stop><stop offset="0.5" stop-color="#20BDFF"></stop><stop offset="1" stop-color="#A5FECB"></stop></linearGradient><linearGradient id="i197" x1="24.172" y1="99.836" x2="175.507" y2="99.836" gradientUnits="userSpaceOnUse"><stop stop-color="#5433FF"></stop><stop offset="0.5" stop-color="#20BDFF"></stop><stop offset="1" stop-color="#A5FECB"></stop></linearGradient><linearGradient id="i196" x1="24.172" y1="99.836" x2="175.507" y2="99.836" gradientUnits="userSpaceOnUse"><stop stop-color="#5433FF"></stop><stop offset="0.5" stop-color="#20BDFF"></stop><stop offset="1" stop-color="#A5FECB"></stop></linearGradient><linearGradient id="i195" x1="24.172" y1="99.836" x2="175.507" y2="99.836" gradientUnits="userSpaceOnUse"><stop stop-color="#5433FF"></stop><stop offset="0.5" stop-color="#20BDFF"></stop><stop offset="1" stop-color="#A5FECB"></stop></linearGradient><linearGradient id="i194" x1="24.172" y1="99.836" x2="175.507" y2="99.836" gradientUnits="userSpaceOnUse"><stop stop-color="#5433FF"></stop><stop offset="0.5" stop-color="#20BDFF"></stop><stop offset="1" stop-color="#A5FECB"></stop></linearGradient><linearGradient id="i193" x1="24.172" y1="99.836" x2="175.507" y2="99.836" gradientUnits="userSpaceOnUse"><stop stop-color="#5433FF"></stop><stop offset="0.5" stop-color="#20BDFF"></stop><stop offset="1" stop-color="#A5FECB"></stop></linearGradient><linearGradient id="i192" x1="24.172" y1="99.836" x2="175.507" y2="99.836" gradientUnits="userSpaceOnUse"><stop stop-color="#5433FF"></stop><stop offset="0.5" stop-color="#20BDFF"></stop><stop offset="1" stop-color="#A5FECB"></stop></linearGradient><linearGradient id="i191" x1="24.172" y1="99.836" x2="175.507" y2="99.836" gradientUnits="userSpaceOnUse"><stop stop-color="#5433FF"></stop><stop offset="0.5" stop-color="#20BDFF"></stop><stop offset="1" stop-color="#A5FECB"></stop></linearGradient><linearGradient id="i190" x1="24.172" y1="99.836" x2="175.507" y2="99.836" gradientUnits="userSpaceOnUse"><stop stop-color="#5433FF"></stop><stop offset="0.5" stop-color="#20BDFF"></stop><stop offset="1" stop-color="#A5FECB"></stop></linearGradient></defs></svg>